<svg width="83" height="83" viewBox="0 0 83 83" fill="none" xmlns="http://www.w3.org/2000/svg">
<g clip-path="url(#clip0)">
<path d="M49.1237 9.98231C48.2518 9.77238 47.3776 10.3082 47.1678 11.1784C46.9581 12.0487 47.4935 12.9244 48.3639 13.1342C61.5031 16.3016 70.6796 27.966 70.6796 41.4998C70.6796 57.5894 57.5898 70.6794 41.5 70.6794C25.4102 70.6794 12.3205 57.5894 12.3205 41.4998C12.3205 27.9665 21.4965 16.3021 34.635 13.1344C35.5054 12.9244 36.0408 12.0487 35.8311 11.1785C35.6211 10.3082 34.7451 9.77303 33.8752 9.98247C26.924 11.6585 20.6263 15.6767 16.1422 21.2969C11.5209 27.0888 9.07828 34.0749 9.07828 41.4998C9.07828 59.3772 23.6227 73.9216 41.5 73.9216C59.3774 73.9216 73.9218 59.3773 73.9218 41.4998C73.9218 34.0747 71.4791 27.0885 66.8576 21.2964C62.3733 15.6764 56.0752 11.6582 49.1237 9.98231Z" fill="#E8B500"/>
<path d="M82.0227 37.6008L80.1262 34.0625L80.4425 29.6881C80.7466 26.8843 79.6282 24.1479 77.4468 22.3634L74.2987 19.7855L73.0603 16.0551C72.3668 13.2028 70.2006 10.9102 67.3899 10.0613L63.504 8.88729L60.528 5.44734C58.7672 3.37608 56.102 2.2987 53.3982 2.5644L49.3649 2.96627L45.4002 0.977354C42.9569 -0.32519 40.0438 -0.326325 37.6002 0.977192L34.062 2.87354L29.6878 2.5571C26.8829 2.25299 24.1475 3.37154 22.3631 5.55271L19.7851 8.70086L16.0548 9.93921C13.2024 10.6327 10.9098 12.799 10.0609 15.6095L8.88702 19.4954L5.44708 22.4715C3.37598 24.2323 2.29795 26.8971 2.56398 29.6014L2.96584 33.6346L0.976931 37.5993C-0.325775 40.0428 -0.326747 42.9557 0.976607 45.3995L2.87312 48.9377L2.55668 53.312C2.25273 56.1159 3.37111 58.8521 5.55229 60.6368L8.70044 63.2146L9.93879 66.9451C10.6321 69.7974 12.7984 72.0899 15.6092 72.9389L19.4949 74.1127L22.4711 77.5528C24.2321 79.6239 26.8962 80.7019 29.601 80.4358L33.6341 80.0339L37.5984 82.0225C38.8206 82.6742 40.1602 83.0002 41.4999 83.0002C42.8386 83.0002 44.1773 82.6746 45.3988 82.0231L48.9371 80.1268L53.3113 80.4432C56.115 80.7467 58.8514 79.6288 60.6362 77.4476L63.214 74.2995L66.9446 73.0613C69.7968 72.3678 72.0892 70.2015 72.9381 67.3909L74.1121 63.5051L77.5522 60.529C79.6233 58.7681 80.7013 56.1034 80.4353 53.3989L80.0333 49.366L82.022 45.4013C83.3247 42.9577 83.326 40.0446 82.0227 37.6008ZM79.1542 43.8883C79.147 43.9016 79.1401 43.9149 79.1334 43.9282L76.9245 48.3319C76.7869 48.6062 76.73 48.914 76.7603 49.2196L77.2089 53.7181C77.3707 55.3631 76.714 56.9858 75.4416 58.0677L71.6356 61.3604C71.4034 61.5613 71.2332 61.8237 71.1445 62.1175L69.8345 66.4531C69.3124 68.1818 67.8938 69.5109 66.1325 69.9216C66.0843 69.9327 66.0367 69.9462 65.9898 69.9618L61.7468 71.37C61.4555 71.4668 61.1976 71.6441 61.0032 71.8816L58.1274 75.3939C57.0351 76.729 55.3571 77.4108 53.64 77.2176C53.6186 77.2151 53.5971 77.2132 53.5759 77.2116L48.7025 76.8592C48.3957 76.8371 48.0903 76.9023 47.8199 77.0472L43.8702 79.164C42.3808 79.9584 40.6018 79.9551 39.1112 79.1548C39.0979 79.1478 39.0846 79.1408 39.0713 79.1342L34.6678 76.9253C34.4415 76.8118 34.1925 76.7531 33.9409 76.7531C33.8874 76.7531 33.8338 76.7557 33.7801 76.7611L29.2816 77.2093C27.6368 77.3717 26.014 76.7144 24.9321 75.4422L21.6393 71.6362C21.4386 71.404 21.176 71.2337 20.8821 71.145L16.5465 69.8353C14.8176 69.3132 13.4886 67.8945 13.078 66.1331C13.0668 66.0849 13.0534 66.0374 13.0378 65.9904L11.6296 61.7472C11.533 61.4559 11.3556 61.1982 11.1181 61.0038L7.60604 58.1278C6.27092 57.0355 5.58909 55.358 5.78232 53.6406C5.78475 53.6192 5.7867 53.5979 5.78832 53.5763L6.14074 48.7028C6.16295 48.3968 6.09762 48.0907 5.9527 47.8201L3.83572 43.8708C3.04139 42.3814 3.04479 40.6024 3.8448 39.1118C3.85193 39.0987 3.85874 39.0854 3.86538 39.0721L6.07428 34.6684C6.21191 34.3941 6.26881 34.0863 6.23833 33.7809L5.7901 29.282C5.62832 27.6371 6.28502 26.0144 7.55741 24.9325L11.3634 21.6397C11.5955 21.4389 11.7658 21.1764 11.8546 20.8827L13.1644 16.5469C13.6866 14.8182 15.1052 13.4892 16.8667 13.0784C16.9148 13.0673 16.9623 13.0538 17.0093 13.0382L21.2522 11.6298C21.5435 11.5332 21.8013 11.3559 21.9956 11.1184L24.8718 7.60614C25.964 6.27118 27.642 5.58967 29.3589 5.78258C29.3803 5.78501 29.4017 5.78696 29.4231 5.78858L34.2964 6.141C34.6017 6.16273 34.9086 6.09788 35.1791 5.95296L39.1286 3.83614C40.6179 3.04181 42.397 3.04505 43.8874 3.84522C43.9006 3.85219 43.9138 3.85916 43.9273 3.86581L48.331 6.0747C48.6053 6.21233 48.9131 6.26939 49.2185 6.23875L53.7172 5.79052C55.362 5.62842 56.9848 6.28544 58.0668 7.55783L61.3595 11.3638C61.5602 11.596 61.8228 11.7662 62.1167 11.855L66.4523 13.1649C68.181 13.687 69.51 15.1058 69.9208 16.8671C69.932 16.9152 69.9454 16.9627 69.961 17.0097L71.3694 21.2526C71.4662 21.5439 71.6434 21.8017 71.8808 21.996L75.3931 24.872C76.7282 25.9643 77.4099 27.6416 77.2167 29.3592C77.2142 29.3806 77.2123 29.402 77.2108 29.4235L76.8584 34.297C76.8362 34.6031 76.9015 34.9091 77.0463 35.1797L79.1633 39.1292C79.9577 40.6189 79.9543 42.3979 79.1542 43.8883Z" fill="#E8B500"/>
<path d="M34.4647 32.6675C34.2047 32.1196 33.6479 31.7398 33.001 31.7398H24.4357C23.5404 31.7398 22.8146 32.4655 22.8146 33.3609V57.8986C22.8146 58.7939 23.5404 59.5197 24.4357 59.5197H33.001C33.673 59.5197 34.2493 59.111 34.495 58.5286C35.7308 58.702 37.0038 59.0535 38.3292 59.4205C40.3219 59.9721 42.3821 60.5426 44.5228 60.5426H53.8811C56.7741 60.5426 59.1184 59.0089 60.1521 56.4396C60.6557 55.1878 60.7438 53.8887 60.4496 52.8011C60.9878 52.3172 61.4427 51.7148 61.7867 51.0114C62.4839 49.5862 62.6232 47.9834 62.228 46.6335C62.9646 45.9219 63.5141 44.9821 63.8014 43.8741C64.07 42.8382 64.0653 41.8161 63.8263 40.9305C65.2886 40.0704 66.2734 38.5076 66.2734 36.7468C66.2734 35.3658 65.7357 34.0933 64.7591 33.1637C63.8215 32.2712 62.5726 31.7795 61.2427 31.7795L48.0517 31.7798C47.0495 30.5227 46.7377 28.8166 47.3083 27.4434C48.4793 24.625 48.4067 22.2392 47.0734 19.7081C46.0835 17.8294 43.422 15.959 41.1851 16.2783C39.833 16.4716 38.8546 17.4272 38.5677 18.8349C38.4832 19.2491 38.4601 19.6965 38.4333 20.2146C38.3672 21.4927 38.2764 23.2432 37.1731 25.3569C36.4253 26.7898 36.1758 28.2635 35.9556 29.5638C35.6403 31.4264 35.4875 32.3237 34.4647 32.6675ZM26.0568 34.9819H31.38V56.2775H26.0568V34.9819ZM39.1524 30.1049C39.3413 28.9894 39.5365 27.8359 40.0474 26.8572C41.4777 24.1169 41.5988 21.7792 41.6713 20.3824C41.6906 20.0104 41.7087 19.6589 41.7447 19.4822C41.7449 19.4811 41.7452 19.4798 41.7455 19.4787C42.3079 19.4865 43.6918 20.2456 44.2049 21.2196C45.0929 22.9048 45.1224 24.2547 44.3145 26.1997C43.5858 27.9534 43.6406 29.9883 44.3613 31.7976C43.5726 31.9074 42.9651 32.5826 42.9651 33.4014C42.9651 34.2965 43.691 35.0225 44.5861 35.0225L61.2427 35.022C61.7366 35.022 62.1916 35.1961 62.5236 35.5122C62.7553 35.7325 63.0312 36.1258 63.0312 36.747C63.0312 37.6165 62.2341 38.3684 61.2905 38.389L57.118 38.4798C56.223 38.4992 55.5131 39.2405 55.5325 40.1357C55.5518 41.0189 56.2735 41.7216 57.1527 41.7216C57.1645 41.7216 57.1765 41.7216 57.1886 41.7213L60.6636 41.6457C60.7769 41.9669 60.8359 42.5795 60.5973 43.2813C60.3942 43.8781 59.849 44.8793 58.4776 44.8793C57.5824 44.8793 56.8565 45.6051 56.8565 46.5004C56.8565 47.3957 57.5824 48.1215 58.4776 48.1215C58.7233 48.1215 58.9645 48.1063 59.2006 48.0763C59.2207 48.535 59.1263 49.0724 58.8746 49.587C58.5769 50.1952 57.9886 50.9205 56.8763 50.9205C55.9811 50.9205 55.2552 51.6462 55.2552 52.5416C55.2552 53.4369 55.9811 54.1627 56.8763 54.1627C57.044 54.1627 57.21 54.1552 57.3739 54.1404C57.3697 54.4515 57.3065 54.8404 57.1296 55.2658C56.8755 55.8776 56.0498 57.3004 53.8815 57.3004H44.5231C42.8231 57.3004 41.0606 56.8125 39.1947 56.2958C37.71 55.8847 36.1876 55.4636 34.6225 55.2755V35.9484C38.2722 35.287 38.7754 32.3324 39.1524 30.1049Z" fill="#E8B500"/>
<path d="M41.5003 12.3205C42.3957 12.3205 43.1214 11.5947 43.1214 10.6994C43.1214 9.80407 42.3957 9.07831 41.5003 9.07831H41.4992C40.6039 9.07831 39.8787 9.80407 39.8787 10.6994C39.8787 11.5947 40.605 12.3205 41.5003 12.3205Z" fill="#E8B500"/>
</g>
<defs>
<clipPath id="clip0">
<rect width="83" height="83" fill="white"/>
</clipPath>
</defs>
</svg>
