<svg width="83" height="83" viewBox="0 0 83 83" fill="none" xmlns="http://www.w3.org/2000/svg">
<path d="M70.8113 12.1887C62.9515 4.32865 52.5418 0 41.5 0C30.4582 0 20.0486 4.32865 12.1887 12.1887C4.32865 20.0486 0 30.4582 0 41.5C0 52.5418 4.32865 62.9515 12.1887 70.8113C20.0486 78.6714 30.4582 83 41.5 83C52.5418 83 62.9515 78.6714 70.8113 70.8113C78.6714 62.9515 83 52.5418 83 41.5C83 30.4582 78.6714 20.0486 70.8113 12.1887ZM41.5 78.1367C21.2984 78.1367 4.86328 61.7016 4.86328 41.5C4.86328 21.2984 21.2984 4.86328 41.5 4.86328C61.7016 4.86328 78.1367 21.2984 78.1367 41.5C78.1367 61.7016 61.7016 78.1367 41.5 78.1367Z" fill="#E8B500"/>
<path d="M41.5 9.88867C24.0695 9.88867 9.88867 24.0695 9.88867 41.5C9.88867 58.9305 24.0695 73.1113 41.5 73.1113C58.9305 73.1113 73.1113 58.9305 73.1113 41.5C73.1113 24.0695 58.9305 9.88867 41.5 9.88867ZM41.5 68.248C26.7511 68.248 14.752 56.2489 14.752 41.5C14.752 26.7511 26.7511 14.752 41.5 14.752C56.2489 14.752 68.248 26.7511 68.248 41.5C68.248 56.2489 56.2489 68.248 41.5 68.248Z" fill="#E8B500"/>
<path d="M48.7949 34.1805C48.7949 35.5234 49.8836 36.6121 51.2266 36.6121C52.5695 36.6121 53.6582 35.5234 53.6582 34.1805C53.6582 31.4875 52.2654 28.8983 49.8366 27.0769C48.1778 25.8327 46.1367 25.0015 43.9316 24.648V22.0221C43.9316 20.6792 42.8429 19.5905 41.5 19.5905C40.1571 19.5905 39.0684 20.6792 39.0684 22.0221V24.648C36.8632 25.0015 34.8221 25.8327 33.1634 27.0769C30.7346 28.8983 29.3418 31.4875 29.3418 34.1805C29.3418 36.8735 30.7346 39.4625 33.1634 41.2841C34.8222 42.5283 36.8633 43.3594 39.0684 43.713V53.3438C36.2671 52.6592 34.2051 50.8413 34.2051 48.7703C34.2051 47.4274 33.1164 46.3387 31.7734 46.3387C30.4305 46.3387 29.3418 47.4274 29.3418 48.7703C29.3418 51.4633 30.7346 54.0523 33.1634 55.874C34.8222 57.1182 36.8633 57.9493 39.0684 58.3028V60.9532C39.0684 62.2961 40.1571 63.3848 41.5 63.3848C42.8429 63.3848 43.9316 62.2961 43.9316 60.9532V58.3028C46.1368 57.9493 48.1779 57.1182 49.8366 55.874C52.2654 54.0525 53.6582 51.4633 53.6582 48.7703C53.6582 46.0774 52.2654 43.4882 49.8366 41.6667C48.1778 40.4225 46.1367 39.5914 43.9316 39.2378V29.6071C46.7329 30.2918 48.7949 32.1095 48.7949 34.1805ZM34.2051 34.1805C34.2051 32.1095 36.2671 30.2916 39.0684 29.6071V38.7538C36.2671 38.0693 34.2051 36.2514 34.2051 34.1805ZM48.7949 48.7703C48.7949 50.8413 46.7329 52.6592 43.9316 53.3438V44.1971C46.7329 44.8817 48.7949 46.6994 48.7949 48.7703Z" fill="#E8B500"/>
</svg>
