<svg width="83" height="83" viewBox="0 0 83 83" fill="none" xmlns="http://www.w3.org/2000/svg">
<g clip-path="url(#clip0)">
<path d="M79.583 34.6763L78.5154 33.8778C77.1856 32.8824 76.7139 31.1207 77.3674 29.594L77.8929 28.3687C78.9606 25.8756 78.7953 23.0989 77.4396 20.7509C76.0832 18.4022 73.7617 16.8704 71.0686 16.5493L69.7451 16.391C68.0955 16.1941 66.8056 14.9042 66.6087 13.2552L66.451 11.9312C66.1293 9.23864 64.5975 6.91657 62.2495 5.56081C59.9008 4.20442 57.1241 4.03915 54.6317 5.10741L53.4058 5.63237C51.879 6.2865 50.1174 5.8141 49.1219 4.48431L48.3234 3.41731C46.6985 1.24595 44.2118 0.00100708 41.4997 0.00100708C38.7875 0.00100708 36.3008 1.24595 34.6759 3.41731L33.8768 4.48431C32.8814 5.81474 31.1203 6.2865 29.593 5.63237L28.3677 5.10741C25.8746 4.03978 23.0979 4.20442 20.7498 5.56081C18.4012 6.91657 16.8694 9.23864 16.5483 11.9312L16.39 13.2546C16.1931 14.9042 14.9032 16.1941 13.2536 16.391L11.9301 16.5493C9.23763 16.8704 6.91556 18.4022 5.5598 20.7509C4.20341 23.0989 4.03877 25.8756 5.10641 28.3687L5.63136 29.594C6.28549 31.1207 5.8131 32.8824 4.4833 33.8778L3.4163 34.6763C1.24557 36.3012 0 38.7886 0 41.5001C0 44.2122 1.24557 46.6996 3.4163 48.3244L4.48394 49.1229C5.81373 50.1184 6.28549 51.8801 5.63199 53.4068L5.10641 54.6321C4.03877 57.1251 4.20405 59.9019 5.5598 62.2499C6.91619 64.5986 9.23763 66.1304 11.9308 66.4514L13.2542 66.6097C14.9038 66.8067 16.1937 68.0966 16.3906 69.7455L16.5483 71.0696C16.87 73.7621 18.4018 76.0842 20.7498 77.4399C23.0985 78.7957 25.8752 78.961 28.3677 77.8933L29.5936 77.3684C31.1203 76.7143 32.882 77.1867 33.8774 78.5164L34.6759 79.5835C36.3008 81.7548 38.7882 83.0004 41.5003 83.0004C44.2118 83.0004 46.6992 81.7548 48.324 79.5835L49.1226 78.5164C50.118 77.1867 51.879 76.7143 53.407 77.369L54.6323 77.8933C57.1247 78.961 59.9015 78.7963 62.2501 77.4406C64.5982 76.0842 66.13 73.7621 66.4517 71.0696L66.6093 69.7461C66.8063 68.0966 68.0962 66.8067 69.7458 66.6097L71.0692 66.4521C73.7617 66.1304 76.0844 64.5986 77.4402 62.2505C78.7959 59.9019 78.9612 57.1251 77.8929 54.6321L77.3686 53.4074C76.7145 51.8801 77.1863 50.1184 78.5167 49.1229L79.5837 48.3244C81.755 46.6996 83 44.2122 83 41.5007C82.9994 38.7886 81.7538 36.3012 79.583 34.6763ZM77.6403 45.7288L76.5733 46.5273C74.041 48.422 73.1418 51.7762 74.388 54.684L74.9123 55.9087C75.574 57.4532 75.4715 59.1737 74.6318 60.6288C73.7915 62.0846 72.3528 63.0332 70.6842 63.2327L69.3607 63.3904C66.2199 63.7652 63.7648 66.2209 63.39 69.3618L63.2317 70.6852C63.0322 72.3538 62.0836 73.7925 60.6284 74.6328C59.1733 75.4725 57.4528 75.5751 55.9083 74.9133L54.683 74.3884C51.7752 73.1428 48.4216 74.042 46.5263 76.5743L45.7278 77.6413C44.7209 78.9863 43.1796 79.7582 41.4997 79.7582C39.8191 79.7582 38.2778 78.9863 37.2709 77.6413L36.4724 76.5743C35.1483 74.8044 33.1118 73.8324 31.0133 73.8324C30.1084 73.8324 29.1921 74.0135 28.3164 74.3884L27.0911 74.9133C25.546 75.5751 23.8261 75.4725 22.3703 74.6328C20.9151 73.7925 19.9665 72.3538 19.7671 70.6852L19.6094 69.3618C19.2339 66.2209 16.7788 63.7659 13.638 63.391L12.3145 63.2327C10.6459 63.0332 9.20723 62.0846 8.36693 60.6295C7.52726 59.1743 7.42468 57.4538 8.08641 55.9093L8.61136 54.684C9.85693 51.7768 8.95774 48.4226 6.42607 46.5273L5.35843 45.7288C4.01344 44.722 3.24216 43.1807 3.24216 41.5001C3.24216 39.8201 4.01344 38.2788 5.35907 37.272L6.42607 36.4734C8.95837 34.5782 9.85757 31.2239 8.61136 28.3167L8.08704 27.0914C7.42531 25.547 7.52789 23.8265 8.36756 22.3713C9.20787 20.9161 10.6466 19.9675 12.3152 19.7681L13.6386 19.6098C16.7795 19.2349 19.2345 16.7798 19.6094 13.639L19.7677 12.3155C19.9672 10.647 20.9157 9.20824 22.3709 8.36794C23.8261 7.52764 25.5466 7.42569 27.0911 8.08742L28.3164 8.61174C31.2235 9.85731 34.5778 8.95875 36.4731 6.42644L37.2716 5.35944C38.2784 4.01445 39.8197 3.24254 41.4997 3.24254C43.1796 3.24254 44.7209 4.01445 45.7278 5.35944L46.5269 6.42708C48.4216 8.95938 51.7764 9.85794 54.683 8.61237L55.9083 8.08742C57.4528 7.42569 59.1733 7.52827 60.6284 8.36794C62.0836 9.20824 63.0328 10.647 63.2317 12.3155L63.39 13.639C63.7648 16.7798 66.2205 19.2349 69.3607 19.6098L70.6842 19.7681C72.3528 19.9675 73.7915 20.9161 74.6318 22.3713C75.4721 23.8265 75.574 25.547 74.9129 27.0914L74.388 28.3167C73.1424 31.2246 74.041 34.5782 76.5733 36.4734L77.6403 37.272C78.9859 38.2788 79.7572 39.8201 79.7572 41.5007C79.7572 43.1807 78.9859 44.722 77.6403 45.7288Z" fill="#E8B500"/>
<path d="M41.4997 9.4223C36.6092 9.4223 31.9131 10.495 27.5425 12.6106C26.7364 13.0007 26.3995 13.9702 26.789 14.7757C27.179 15.5818 28.1492 15.9187 28.9546 15.5286C32.8813 13.6282 37.1018 12.6645 41.4997 12.6645C57.3995 12.6645 70.3353 25.6002 70.3353 41.5007C70.3353 57.4006 57.3995 70.3363 41.4997 70.3363C25.5991 70.3363 12.6634 57.4006 12.6634 41.5007C12.6634 34.9879 14.7816 28.843 18.7893 23.7296C19.3415 23.0248 19.218 22.0059 18.5132 21.4531C17.8084 20.9009 16.7896 21.0251 16.2374 21.7292C11.7788 27.4195 9.42188 34.2559 9.42188 41.5007C9.42188 59.1882 23.8121 73.5785 41.4997 73.5785C59.1872 73.5785 73.5774 59.1882 73.5774 41.5007C73.5774 23.8126 59.1872 9.4223 41.4997 9.4223Z" fill="#E8B500"/>
<path d="M17.7978 33.2464L16.563 34.8206C16.0102 35.5254 16.1337 36.5443 16.8379 37.0965C17.5426 37.6493 18.5615 37.5264 19.1137 36.8216L19.7919 35.9579V46.6793H18.7065C17.8111 46.6793 17.0854 47.405 17.0854 48.3004C17.0854 49.1958 17.8111 49.9215 18.7065 49.9215H24.0637C24.9585 49.9215 25.6848 49.1958 25.6848 48.3004C25.6848 47.405 24.9585 46.6793 24.0637 46.6793H23.0341V34.2469C23.0341 33.3515 22.3078 32.6258 21.413 32.6258H19.0732C18.5755 32.6258 18.105 32.8544 17.7978 33.2464Z" fill="#E8B500"/>
<path d="M30.8247 49.9215H31.6669C34.3442 49.9215 36.5219 47.7438 36.5219 45.0664V37.2086C36.5219 34.5312 34.3436 32.3529 31.6669 32.3529H30.8247C28.1473 32.3529 25.9696 34.5312 25.9696 37.2086V45.0664C25.9696 47.7438 28.1473 49.9215 30.8247 49.9215ZM29.2118 37.2086C29.2118 36.3189 29.9356 35.5951 30.8247 35.5951H31.6669C32.5559 35.5951 33.2797 36.3189 33.2797 37.2086V45.0664C33.2797 45.9555 32.5559 46.6793 31.6669 46.6793H30.8247C29.9356 46.6793 29.2118 45.9555 29.2118 45.0664V37.2086Z" fill="#E8B500"/>
<path d="M43.8889 49.9215C46.5662 49.9215 48.7439 47.7438 48.7439 45.0664V37.2086C48.7439 34.5312 46.5656 32.3529 43.8889 32.3529H43.0467C40.3694 32.3529 38.1917 34.5312 38.1917 37.2086V45.0664C38.1917 47.7438 40.3694 49.9215 43.0467 49.9215H43.8889ZM41.4338 45.0664V37.2086C41.4338 36.3189 42.1576 35.5951 43.0467 35.5951H43.8889C44.778 35.5951 45.5018 36.3189 45.5018 37.2086V45.0664C45.5018 45.9555 44.778 46.6793 43.8889 46.6793H43.0467C42.1576 46.6793 41.4338 45.9561 41.4338 45.0664Z" fill="#E8B500"/>
<path d="M65.2974 32.156C64.5736 31.6297 63.5597 31.7899 63.0329 32.5137L52.7326 46.6787C52.2058 47.4031 52.366 48.4169 53.0904 48.9432C53.3779 49.1521 53.7116 49.2534 54.0422 49.2534C54.543 49.2534 55.0376 49.0217 55.3549 48.5854L65.6551 34.4204C66.182 33.6966 66.0212 32.6828 65.2974 32.156Z" fill="#E8B500"/>
<path d="M26.8985 25.9825C27.2766 25.9825 27.6565 25.8508 27.9636 25.583C31.7111 22.3104 36.518 20.5082 41.4997 20.5082C46.1603 20.5082 50.5556 22.0267 54.2106 24.8991C54.9148 25.4525 55.9336 25.3303 56.4871 24.6261C57.0399 23.9226 56.9177 22.9031 56.2141 22.3503C51.9816 19.0239 46.8936 17.2661 41.4997 17.2661C35.7341 17.2661 30.1692 19.3526 25.8315 23.1406C25.1571 23.7295 25.0875 24.7534 25.6764 25.4278C25.9968 25.7951 26.4464 25.9825 26.8985 25.9825Z" fill="#E8B500"/>
<path d="M26.6003 59.8467C30.8316 63.1724 35.9203 64.9303 41.3141 64.9303C45.0566 64.9303 48.6394 64.0868 51.9639 62.4239C52.7643 62.0237 53.0885 61.0498 52.6883 60.2488C52.2875 59.4484 51.3142 59.1241 50.5131 59.5243C47.6433 60.9605 44.5481 61.6881 41.3141 61.6881C36.6542 61.6881 32.2583 60.1702 28.6032 57.2973C27.8997 56.7444 26.8802 56.8667 26.3274 57.5702C25.7739 58.2743 25.8962 59.2932 26.6003 59.8467Z" fill="#E8B500"/>
<path d="M57.4186 57.0738C57.0602 56.5369 56.3889 56.2582 55.7551 56.3849C55.0826 56.5198 54.5532 57.0821 54.4639 57.7628C54.3765 58.4239 54.7197 59.0895 55.3074 59.4035C55.8975 59.7195 56.6397 59.6328 57.1431 59.1914C57.7485 58.6589 57.8561 57.7432 57.4186 57.0738Z" fill="#E8B500"/>
<path d="M54.6666 31.8463C52.563 31.8463 50.8513 33.5573 50.8513 35.6609C50.8513 37.7646 52.563 39.4762 54.6666 39.4762C56.7696 39.4762 58.4812 37.7646 58.4812 35.6609C58.4812 33.5573 56.7696 31.8463 54.6666 31.8463ZM54.6666 36.234C54.3506 36.234 54.0935 35.9769 54.0935 35.6609C54.0935 35.345 54.3506 35.0879 54.6666 35.0879C54.9826 35.0879 55.239 35.345 55.239 35.6609C55.239 35.9769 54.9826 36.234 54.6666 36.234Z" fill="#E8B500"/>
<path d="M59.8489 45.5407C59.8489 47.6443 61.5606 49.356 63.6636 49.356C65.7672 49.356 67.4788 47.6443 67.4788 45.5407C67.4788 43.4371 65.7672 41.7254 63.6636 41.7254C61.5606 41.7254 59.8489 43.4371 59.8489 45.5407ZM64.2367 45.5407C64.2367 45.8567 63.9802 46.1138 63.6642 46.1138C63.3482 46.1138 63.0911 45.8567 63.0911 45.5407C63.0911 45.2247 63.3482 44.9676 63.6642 44.9676C63.9802 44.9676 64.2367 45.2247 64.2367 45.5407Z" fill="#E8B500"/>
<path d="M20.9886 18.3921C21.2495 19.0183 21.8865 19.4223 22.5641 19.3907C23.2328 19.359 23.8204 18.9018 24.0269 18.2673C24.2352 17.6265 24.0085 16.8944 23.4715 16.486C22.9238 16.0693 22.1588 16.0453 21.5851 16.4246C20.9455 16.847 20.6998 17.6873 20.9886 18.3921Z" fill="#E8B500"/>
</g>
<defs>
<clipPath id="clip0">
<rect width="83" height="83" fill="white"/>
</clipPath>
</defs>
</svg>
