<svg width="83" height="83" viewBox="0 0 83 83" fill="none" xmlns="http://www.w3.org/2000/svg">
<path d="M22.0469 72.625H19.4531V75.2188H22.0469V72.625Z" fill="#E8B500"/>
<path d="M49.2812 57.0625H27.2344V37.6094C27.2344 37.2654 27.0977 36.9356 26.8545 36.6923C26.6113 36.4491 26.2815 36.3125 25.9375 36.3125H2.59375C2.2498 36.3125 1.91993 36.4491 1.67672 36.6923C1.43351 36.9356 1.29688 37.2654 1.29688 37.6094V79.1094C1.29688 79.4533 1.43351 79.7832 1.67672 80.0264C1.91993 80.2696 2.2498 80.4062 2.59375 80.4062H49.2812C49.6252 80.4062 49.9551 80.2696 50.1983 80.0264C50.4415 79.7832 50.5781 79.4533 50.5781 79.1094V58.3594C50.5781 58.0154 50.4415 57.6856 50.1983 57.4423C49.9551 57.1991 49.6252 57.0625 49.2812 57.0625ZM35.0156 59.6562H40.2031V64.8438H35.0156V59.6562ZM11.6719 38.9062H16.8594V44.0938H11.6719V38.9062ZM3.89062 38.9062H9.07812V45.3906C9.07812 45.7346 9.21476 46.0644 9.45797 46.3077C9.70118 46.5509 10.031 46.6875 10.375 46.6875H18.1562C18.5002 46.6875 18.8301 46.5509 19.0733 46.3077C19.3165 46.0644 19.4531 45.7346 19.4531 45.3906V38.9062H24.6406V57.0625H3.89062V38.9062ZM11.6719 59.6562H16.8594V64.8438H11.6719V59.6562ZM3.89062 59.6562H9.07812V66.1406C9.07812 66.4846 9.21476 66.8144 9.45797 67.0577C9.70118 67.3009 10.031 67.4375 10.375 67.4375H18.1562C18.5002 67.4375 18.8301 67.3009 19.0733 67.0577C19.3165 66.8144 19.4531 66.4846 19.4531 66.1406V59.6562H24.6406V77.8125H3.89062V59.6562ZM47.9844 77.8125H27.2344V59.6562H32.4219V66.1406C32.4219 66.4846 32.5585 66.8144 32.8017 67.0577C33.0449 67.3009 33.3748 67.4375 33.7188 67.4375H41.5C41.844 67.4375 42.1738 67.3009 42.417 67.0577C42.6602 66.8144 42.7969 66.4846 42.7969 66.1406V59.6562H47.9844V77.8125Z" fill="#E8B500"/>
<path d="M45.3906 72.625H42.7969V75.2188H45.3906V72.625Z" fill="#E8B500"/>
<path d="M22.0469 51.875H19.4531V54.4688H22.0469V51.875Z" fill="#E8B500"/>
<path d="M77.5082 18.1199C77.6078 18.1441 77.71 18.1563 77.8125 18.1562C78.0398 18.1561 78.263 18.0963 78.46 17.983C78.657 17.8697 78.8209 17.7067 78.9353 17.5104C79.0531 17.3031 79.1132 17.068 79.1094 16.8295V11.6719C79.1094 11.3808 79.0115 11.0983 78.8314 10.8697C78.6514 10.641 78.3997 10.4796 78.1168 10.4113L40.5074 1.33317C40.3074 1.2847 40.0988 1.2847 39.8988 1.33317L2.28947 10.4113C2.00658 10.4796 1.75487 10.641 1.57484 10.8697C1.3948 11.0983 1.2969 11.3808 1.29687 11.6719V16.8226C1.29244 17.0941 1.37007 17.3607 1.51961 17.5874C1.668 17.8056 1.87935 17.9735 2.1255 18.0686C2.37166 18.1637 2.64096 18.1816 2.89754 18.1199L5.1875 17.5673V33.7187H7.78125V16.9412L40.2031 9.11523L72.625 16.9412V77.8125H64.8438V27.2344C64.8438 26.8904 64.7071 26.5605 64.4639 26.3173C64.2207 26.0741 63.8908 25.9375 63.5469 25.9375H16.8594C16.5154 25.9375 16.1856 26.0741 15.9423 26.3173C15.6991 26.5605 15.5625 26.8904 15.5625 27.2344V32.4219C15.5625 32.7658 15.6991 33.0957 15.9423 33.3389C16.1856 33.5821 16.5154 33.7187 16.8594 33.7187H62.25V36.3125H29.8281V38.9062H62.25V41.5H29.8281V44.0937H62.25V46.6875H29.8281V49.2812H62.25V77.8125H53.1719V80.4062H79.1094V77.8125H75.2188V17.5673L77.5082 18.1199ZM18.1562 31.125V28.5312H62.25V31.125H18.1562ZM40.2031 6.48436C40.1006 6.48431 39.9985 6.4965 39.8988 6.52067L3.89062 15.2122V12.6931L40.2031 3.92789L76.5156 12.6931V15.2123L40.5074 6.52067C40.4078 6.4965 40.3056 6.48431 40.2031 6.48436Z" fill="#E8B500"/>
<path d="M42.7969 22.0469C43.8287 22.0469 44.8183 21.637 45.548 20.9073C46.2776 20.1777 46.6875 19.1881 46.6875 18.1562C46.6875 17.1244 46.2776 16.1348 45.548 15.4052C44.8183 14.6755 43.8287 14.2656 42.7969 14.2656H37.6094C36.5775 14.2656 35.5879 14.6755 34.8583 15.4052C34.1287 16.1348 33.7188 17.1244 33.7188 18.1562C33.7188 19.1881 34.1287 20.1777 34.8583 20.9073C35.5879 21.637 36.5775 22.0469 37.6094 22.0469H42.7969ZM36.3125 18.1562C36.3129 17.8124 36.4496 17.4828 36.6928 17.2396C36.9359 16.9965 37.2655 16.8598 37.6094 16.8594H42.7969C43.1408 16.8594 43.4707 16.996 43.7139 17.2392C43.9571 17.4824 44.0937 17.8123 44.0937 18.1562C44.0937 18.5002 43.9571 18.8301 43.7139 19.0733C43.4707 19.3165 43.1408 19.4531 42.7969 19.4531H37.6094C37.2655 19.4527 36.9359 19.316 36.6928 19.0729C36.4496 18.8297 36.3129 18.5001 36.3125 18.1562Z" fill="#E8B500"/>
</svg>
