<svg width="177" height="41" viewBox="0 0 177 41" fill="none" xmlns="http://www.w3.org/2000/svg">
<path d="M2 30.9375C2 30.9375 2 39 17.032 39C32.064 39 32.064 30.9375 32.064 30.9375" stroke="#E8B500" stroke-width="3"/>
<path d="M31.3325 0L17.8037 2.6875L12.5425 22.8438L20.0585 19.4844L15.5489 34.9375L31.3325 12.7656L21.5617 16.125L31.3325 0Z" fill="black"/>
<path d="M69.664 13.4375V10.75H50.1225V24.8594H72.6704V22.1719H78.6832V28.2188H43.3581V10.75H40.3517V7.39062H78.6832V13.4375H69.664Z" fill="black"/>
<path d="M91.4604 13.4375V10.75H114.76V16.7969H98.2248V19.4844H114.76V24.8594H95.2184V22.8438H85.4476V28.2188H120.773V7.39062H85.4476V13.4375H91.4604Z" fill="black"/>
<path d="M131.295 28.2188V7.39062L153.843 10.75L175.639 7.39062L176.391 28.2188H166.62V24.8594H169.627V14.1094H156.849V28.2188H150.085V14.1094H138.06V24.8594H140.314V28.2188H131.295Z" fill="black"/>
</svg>
