<svg width="35" height="35" viewBox="0 0 35 35" fill="none" xmlns="http://www.w3.org/2000/svg">
<g clip-path="url(#clip0)">
<path d="M25.1548 35C24.025 35 22.9048 34.8003 21.8094 34.4023C16.9835 32.6492 12.5041 29.794 8.85524 26.1452C5.20637 22.4964 2.35111 18.0169 0.598107 13.191C0.0347808 11.6402 -0.131462 10.0393 0.104163 8.4326C0.324886 6.92767 0.907831 5.46668 1.79004 4.20755C2.67615 2.94289 3.85749 1.89102 5.2063 1.16568C6.64466 0.39223 8.2146 0 9.87266 0C10.3883 0 10.834 0.360308 10.9421 0.864506L12.6588 8.87583C12.7365 9.2386 12.625 9.61606 12.3628 9.87841L9.42937 12.8117C12.1966 18.3135 16.6868 22.8037 22.1885 25.5709L25.1219 22.6375C25.3841 22.3752 25.7617 22.2639 26.1244 22.3415L34.1358 24.0582C34.64 24.1662 35.0003 24.6119 35.0003 25.1276C35.0003 26.7857 34.608 28.3557 33.8345 29.794C33.1092 31.1428 32.0573 32.3242 30.7926 33.2103C29.5336 34.0925 28.0726 34.6754 26.5676 34.8962C26.096 34.9654 25.6245 34.9999 25.1548 35ZM8.99879 2.23526C6.81172 2.4767 4.87053 3.62303 3.58146 5.46285C2.13189 7.53166 1.79387 10.0762 2.65407 12.4442C6.02432 21.722 13.2784 28.9761 22.5562 32.3463C24.9241 33.2065 27.4687 32.8686 29.5375 31.4189C31.3774 30.1299 32.5237 28.1887 32.7651 26.0016L26.248 24.6051L23.1845 27.6686C22.8585 27.9945 22.3632 28.0812 21.9461 27.8851C15.4392 24.8282 10.1722 19.5612 7.11529 13.0543C6.91931 12.6371 7.00585 12.1418 7.33185 11.8159L10.3953 8.75244L8.99879 2.23526Z" fill="black"/>
<path d="M33.9062 18.593C33.3022 18.593 32.8125 18.1033 32.8125 17.4993C32.8125 9.05629 25.9436 2.18741 17.5006 2.18741C16.8966 2.18741 16.4069 1.6977 16.4069 1.09371C16.4069 0.489706 16.8966 0 17.5006 0C22.1749 0 26.5694 1.8202 29.8745 5.12538C33.1797 8.43055 34.9999 12.825 34.9999 17.4993C34.9999 18.1033 34.5103 18.593 33.9062 18.593Z" fill="black"/>
<path d="M29.5314 18.5929C28.9274 18.5929 28.4377 18.1032 28.4377 17.4992C28.4377 11.4685 23.5313 6.56217 17.5006 6.56217C16.8966 6.56217 16.4069 6.07246 16.4069 5.46846C16.4069 4.86446 16.8966 4.37476 17.5006 4.37476C24.7375 4.37476 30.6251 10.2624 30.6251 17.4992C30.6251 18.1032 30.1354 18.5929 29.5314 18.5929Z" fill="black"/>
<path d="M25.1566 18.5931C24.5526 18.5931 24.0629 18.1034 24.0629 17.4994C24.0629 13.8809 21.1191 10.9372 17.5006 10.9372C16.8966 10.9372 16.4069 10.4475 16.4069 9.84346C16.4069 9.23946 16.8966 8.74976 17.5006 8.74976C22.3252 8.74976 26.2503 12.6748 26.2503 17.4994C26.2503 18.1034 25.7606 18.5931 25.1566 18.5931Z" fill="black"/>
</g>
<defs>
<clipPath id="clip0">
<rect width="35" height="35" fill="white"/>
</clipPath>
</defs>
</svg>
