<svg width="35" height="35" viewBox="0 0 35 35" fill="none" xmlns="http://www.w3.org/2000/svg">
<path d="M17.4757 0C10.4026 0 4.64844 5.7542 4.64844 12.8273C4.64844 16.0765 6.69575 20.6672 10.7338 26.4722C13.6852 30.7155 16.5881 33.9992 16.7104 34.137L17.4757 35L18.2413 34.137C18.3633 33.9992 21.2662 30.7155 24.2179 26.4722C28.2557 20.6672 30.3032 16.0765 30.3032 12.8273C30.3032 5.7542 24.5488 0 17.4757 0ZM22.5492 25.2871C20.5543 28.1571 18.5379 30.6271 17.4757 31.8872C16.4161 30.6306 14.4073 28.1699 12.4136 25.3036C8.67229 19.9252 6.69468 15.6108 6.69468 12.8273C6.69468 6.88267 11.5311 2.04624 17.4757 2.04624C23.4206 2.04624 28.2567 6.88267 28.2567 12.8273C28.2567 15.6078 26.2831 19.9163 22.5492 25.2871Z" fill="black"/>
<path d="M17.4757 4.74072C13.3012 4.74072 9.90517 8.1368 9.90517 12.3113C9.90517 16.4857 13.3012 19.8821 17.4757 19.8821C21.6504 19.8821 25.0465 16.4857 25.0465 12.3113C25.0465 8.1368 21.6504 4.74072 17.4757 4.74072ZM17.4757 17.8358C14.4297 17.8358 11.9514 15.3575 11.9514 12.3113C11.9514 9.26526 14.4297 6.78696 17.4757 6.78696C20.522 6.78696 23.0003 9.26526 23.0003 12.3113C23.0003 15.3575 20.522 17.8358 17.4757 17.8358Z" fill="black"/>
</svg>
